# xmcd
#
# Track frame offsets:
#	150
#	16053
#	37602
#	57026
#	72433
#	91834
#	109152
#	129288
#	147060
#	163105
#	184425
#	203422
#	225384
#	240036
#
# Disc length: 3378 seconds
#
# Revision: 0
# Processed by: cddbd v1.5.2PL0 Copyright (c) Steve Scherf et al.
# Submitted via: dBpowerAMP V4.0
#
DISCID=a00d300e
DTITLE=Grady Gaines and The Texas Upsetters - Full Gain
DYEAR=1987
DGENRE=Blues
TTITLE0=Mr Blues in The Sky
TTITLE1=I've Been Out There
TTITLE2=If I Can't Get Involved
TTITLE3=Full Gain
TTITLE4=Shaggy Dog
TTITLE5=Soul Twist
TTITLE6=If I Loved You A Little Less
TTITLE7=Your Girlfriend
TTITLE8=Stealing Love
TTITLE9=There is Something on Your Mind
TTITLE10=Gangster of the Blues
TTITLE11=Miss Lucy Brown
TTITLE12=Lonesome Saxophone Part I
TTITLE13=Lonesome Saxophone Part II
EXTD=
EXTT0=
EXTT1=
EXTT2=
EXTT3=
EXTT4=
EXTT5=
EXTT6=
EXTT7=
EXTT8=
EXTT9=
EXTT10=
EXTT11=
EXTT12=
EXTT13=
PLAYORDER=
